<svg width="800" height="800" viewBox="0 0 800 800" fill="none" xmlns="http://www.w3.org/2000/svg">
<path opacity="0.5" d="M454.293 682.393L436.223 712.923C420.117 740.133 379.883 740.133 363.777 712.923L345.707 682.393C331.691 658.713 324.683 646.877 313.426 640.327C302.17 633.78 287.997 633.537 259.653 633.05C217.807 632.327 191.563 629.763 169.553 620.647C128.715 603.73 96.2691 571.287 79.3534 530.447C66.6667 499.82 66.6667 460.99 66.6667 383.333V350C66.6667 240.886 66.6667 186.328 91.2267 146.25C104.969 123.824 123.824 104.969 146.25 91.2267C186.328 66.6667 240.886 66.6667 350 66.6667H450C559.113 66.6667 613.67 66.6667 653.75 91.2267C676.177 104.969 695.03 123.824 708.773 146.25C733.333 186.328 733.333 240.886 733.333 350V383.333C733.333 460.99 733.333 499.82 720.647 530.447C703.73 571.287 671.287 603.73 630.447 620.647C608.437 629.763 582.193 632.327 540.347 633.05C512 633.537 497.83 633.78 486.573 640.327C475.317 646.873 468.307 658.713 454.293 682.393Z" fill="white"/>
<path d="M517.677 317.678C527.44 307.915 527.44 292.085 517.677 282.322C507.913 272.559 492.087 272.559 482.323 282.322L366.31 398.337L317.313 351.3C307.353 341.737 291.527 342.06 281.965 352.02C272.403 361.98 272.726 377.807 282.687 387.367L349.353 451.367C359.17 460.793 374.723 460.633 384.343 451.01L517.677 317.678Z" fill="white"/>
</svg>
